<svg width="249" height="75" viewBox="0 0 249 75" fill="none" xmlns="http://www.w3.org/2000/svg">
<rect width="249" height="75" rx="6" fill="#D6E6FF"/>
<path d="M49.824 55L43.104 42.52H42.096V55H32.688V21.16H47.52C50.24 21.16 52.544 21.64 54.432 22.6C56.32 23.528 57.744 24.824 58.704 26.488C59.664 28.12 60.144 29.96 60.144 32.008C60.144 34.312 59.504 36.344 58.224 38.104C56.976 39.832 55.136 41.064 52.704 41.8L60.336 55H49.824ZM42.096 36.088H46.752C48.032 36.088 48.992 35.784 49.632 35.176C50.272 34.568 50.592 33.688 50.592 32.536C50.592 31.448 50.256 30.6 49.584 29.992C48.944 29.352 48 29.032 46.752 29.032H42.096V36.088ZM90.1504 41.224C90.1504 41.96 90.1024 42.696 90.0064 43.432H72.1984C72.2944 44.904 72.6944 46.008 73.3984 46.744C74.1344 47.448 75.0624 47.8 76.1824 47.8C77.7504 47.8 78.8704 47.096 79.5424 45.688H89.5744C89.1584 47.544 88.3424 49.208 87.1264 50.68C85.9424 52.12 84.4384 53.256 82.6144 54.088C80.7904 54.92 78.7744 55.336 76.5664 55.336C73.9104 55.336 71.5424 54.776 69.4624 53.656C67.4144 52.536 65.7984 50.936 64.6144 48.856C63.4624 46.776 62.8864 44.328 62.8864 41.512C62.8864 38.696 63.4624 36.264 64.6144 34.216C65.7664 32.136 67.3664 30.536 69.4144 29.416C71.4944 28.296 73.8784 27.736 76.5664 27.736C79.2224 27.736 81.5744 28.28 83.6224 29.368C85.6704 30.456 87.2704 32.024 88.4224 34.072C89.5744 36.088 90.1504 38.472 90.1504 41.224ZM80.5504 38.872C80.5504 37.72 80.1664 36.824 79.3984 36.184C78.6304 35.512 77.6704 35.176 76.5184 35.176C75.3664 35.176 74.4224 35.496 73.6864 36.136C72.9504 36.744 72.4704 37.656 72.2464 38.872H80.5504ZM105.473 55.336C103.041 55.336 100.865 54.936 98.9445 54.136C97.0565 53.304 95.5525 52.184 94.4325 50.776C93.3445 49.336 92.7365 47.72 92.6085 45.928H101.729C101.857 46.792 102.257 47.464 102.929 47.944C103.601 48.424 104.433 48.664 105.424 48.664C106.193 48.664 106.801 48.504 107.249 48.184C107.697 47.864 107.921 47.448 107.921 46.936C107.921 46.264 107.553 45.768 106.817 45.448C106.081 45.128 104.865 44.776 103.169 44.392C101.249 44.008 99.6485 43.576 98.3685 43.096C97.0885 42.616 95.9685 41.832 95.0085 40.744C94.0805 39.656 93.6165 38.184 93.6165 36.328C93.6165 34.728 94.0485 33.288 94.9125 32.008C95.7765 30.696 97.0405 29.656 98.7045 28.888C100.401 28.12 102.433 27.736 104.801 27.736C108.321 27.736 111.089 28.6 113.105 30.328C115.121 32.056 116.289 34.328 116.609 37.144H108.113C107.953 36.28 107.569 35.624 106.961 35.176C106.385 34.696 105.601 34.456 104.609 34.456C103.841 34.456 103.249 34.6 102.833 34.888C102.449 35.176 102.257 35.576 102.257 36.088C102.257 36.728 102.625 37.224 103.361 37.576C104.097 37.896 105.281 38.232 106.913 38.584C108.865 39 110.481 39.464 111.761 39.976C113.073 40.488 114.209 41.32 115.169 42.472C116.161 43.592 116.656 45.128 116.656 47.08C116.656 48.648 116.193 50.056 115.265 51.304C114.369 52.552 113.073 53.544 111.377 54.28C109.713 54.984 107.745 55.336 105.473 55.336ZM144.226 21.16V28.648H130.69V34.6H140.674V41.752H130.69V55H121.282V21.16H144.226ZM152.94 25.576C151.276 25.576 149.932 25.128 148.908 24.232C147.916 23.304 147.42 22.152 147.42 20.776C147.42 19.368 147.916 18.2 148.908 17.272C149.932 16.344 151.276 15.88 152.94 15.88C154.572 15.88 155.884 16.344 156.876 17.272C157.9 18.2 158.412 19.368 158.412 20.776C158.412 22.152 157.9 23.304 156.876 24.232C155.884 25.128 154.572 25.576 152.94 25.576ZM157.596 28.072V55H148.188V28.072H157.596ZM174.426 55.336C171.994 55.336 169.818 54.936 167.898 54.136C166.01 53.304 164.506 52.184 163.386 50.776C162.298 49.336 161.69 47.72 161.562 45.928H170.682C170.81 46.792 171.21 47.464 171.882 47.944C172.554 48.424 173.386 48.664 174.378 48.664C175.146 48.664 175.754 48.504 176.202 48.184C176.65 47.864 176.874 47.448 176.874 46.936C176.874 46.264 176.506 45.768 175.77 45.448C175.034 45.128 173.818 44.776 172.122 44.392C170.202 44.008 168.602 43.576 167.322 43.096C166.042 42.616 164.922 41.832 163.962 40.744C163.034 39.656 162.57 38.184 162.57 36.328C162.57 34.728 163.002 33.288 163.866 32.008C164.73 30.696 165.994 29.656 167.658 28.888C169.354 28.12 171.386 27.736 173.754 27.736C177.274 27.736 180.042 28.6 182.058 30.328C184.074 32.056 185.242 34.328 185.562 37.144H177.066C176.906 36.28 176.522 35.624 175.914 35.176C175.338 34.696 174.554 34.456 173.562 34.456C172.794 34.456 172.202 34.6 171.786 34.888C171.402 35.176 171.21 35.576 171.21 36.088C171.21 36.728 171.578 37.224 172.314 37.576C173.05 37.896 174.234 38.232 175.866 38.584C177.818 39 179.434 39.464 180.714 39.976C182.026 40.488 183.162 41.32 184.122 42.472C185.114 43.592 185.61 45.128 185.61 47.08C185.61 48.648 185.146 50.056 184.218 51.304C183.322 52.552 182.026 53.544 180.33 54.28C178.666 54.984 176.698 55.336 174.426 55.336ZM207.947 27.832C211.019 27.832 213.451 28.872 215.243 30.952C217.067 33 217.979 35.784 217.979 39.304V55H208.571V40.552C208.571 39.016 208.171 37.816 207.371 36.952C206.571 36.056 205.499 35.608 204.155 35.608C202.747 35.608 201.643 36.056 200.843 36.952C200.043 37.816 199.643 39.016 199.643 40.552V55H190.235V19.48H199.643V31.912C200.475 30.696 201.595 29.72 203.003 28.984C204.443 28.216 206.091 27.832 207.947 27.832Z" fill="#2176FF"/>
</svg>
